<?xml version="1.0" encoding="utf-8"?>
<!-- Generator: Adobe Illustrator 25.2.3, SVG Export Plug-In . SVG Version: 6.00 Build 0)  -->
<svg version="1.1" id="Layer_1" xmlns="http://www.w3.org/2000/svg" xmlns:xlink="http://www.w3.org/1999/xlink" x="0px" y="0px"
	 viewBox="0 0 700 700" style="enable-background:new 0 0 700 700;" xml:space="preserve">
<style type="text/css">
	.st0{fill:#E52E71;}
</style>
<g>
	<path class="st0" d="M369.1,265.2h-47c-6,0-10.9,4.9-10.9,10.9s4.9,10.9,10.9,10.9h47c6,0,10.9-4.9,10.9-10.9
		C379.9,270.1,375.1,265.2,369.1,265.2z"/>
	<path class="st0" d="M363,647.1c0,9.6-7.8,17.4-17.4,17.4c-9.6,0-17.4-7.8-17.4-17.4c0-9.6,7.8-17.4,17.4-17.4
		C355.2,629.7,363,637.5,363,647.1"/>
	<path class="st0" d="M609.8,639.8c58.2-53.6,58.2-141,0-194.5c-4.4-4.1-11.3-3.8-15.3,0.6c-4.1,4.4-3.8,11.3,0.6,15.3
		c48.9,45,48.9,117.6,0,162.6c-4.4,4.1-4.7,10.9-0.6,15.3C598.5,643.5,605.4,643.9,609.8,639.8L609.8,639.8z"/>
	<path class="st0" d="M559.2,606.7c4,4.4,10.9,4.7,15.3,0.6c38.8-35.7,38.8-93.9,0-129.6c-4.4-4.1-11.3-3.8-15.3,0.6
		c-4.1,4.4-3.8,11.3,0.6,15.3c29.4,27,29.4,70.6,0,97.7C555.4,595.4,555.1,602.3,559.2,606.7L559.2,606.7z"/>
	<path class="st0" d="M523.9,574.2c4.1,4.4,10.9,4.7,15.3,0.6c19.3-17.7,19.3-46.9,0-64.7c-4.4-4.1-11.3-3.8-15.3,0.6
		c-4.1,4.4-3.8,11.3,0.6,15.3c9.9,9.2,9.9,23.6,0,32.7C520.1,562.9,519.8,569.8,523.9,574.2L523.9,574.2z"/>
	<path class="st0" d="M98.9,461.2c4.4-4.1,4.7-10.9,0.6-15.3c-4.1-4.4-10.9-4.7-15.3-0.6c-58.2,53.6-58.2,141,0,194.5
		c4.4,4.1,11.3,3.8,15.3-0.6c4.1-4.4,3.8-11.3-0.6-15.3C50,578.9,50,506.2,98.9,461.2L98.9,461.2z"/>
	<path class="st0" d="M134.8,478.4c-4.1-4.4-10.9-4.7-15.3-0.6c-38.8,35.6-38.8,93.9,0,129.6c4.4,4.1,11.3,3.7,15.3-0.6
		c4.1-4.4,3.8-11.3-0.6-15.3c-29.4-27-29.4-70.6,0-97.7C138.6,489.6,138.9,482.8,134.8,478.4L134.8,478.4z"/>
	<path class="st0" d="M170.1,510.8c-4.1-4.4-10.9-4.7-15.3-0.6c-19.3,17.7-19.3,46.9,0,64.7c4.4,4.1,11.3,3.8,15.3-0.6
		c4.1-4.4,3.8-11.3-0.6-15.3c-9.9-9.2-9.9-23.6,0-32.7C173.9,522.1,174.1,515.2,170.1,510.8L170.1,510.8z"/>
	<path class="st0" d="M650.7,311.3c0-46.5-36.2-83.2-79.3-87c29.8-58.6-16.1-133.5-87.6-125.7c-2-52.3-46.3-96-100.8-96
		c-47.3,0-87.6,32.9-98.3,77.5c-76-37.9-163.8,34.4-141.7,116c-54.6-1.3-102.5,43.5-102.5,101.2c0,55.8,45.3,101.2,100.9,101.2h59.8
		v255.2c0,24,19.6,43.6,43.6,43.6h201.4c24,0,43.6-19.6,43.6-43.6V398.5h73.8C611.7,398.5,650.7,359.4,650.7,311.3L650.7,311.3z
		 M468.2,653.7c0,12.1-9.8,21.9-21.9,21.9l-201.4,0c-12.1,0-21.9-9.8-21.9-21.9v-33.1h245.2L468.2,653.7z M468.2,599H223V319.9
		h245.2V599z M468.2,298.2H223V278c0-12.1,9.8-21.9,21.9-21.9h201.4c12.1,0,21.9,9.8,21.9,21.9L468.2,298.2z M446.3,234.4H244.9
		c-24,0-43.6,19.6-43.6,43.6v98.9h-59.8c-43.7,0-79.2-35.6-79.2-79.5c0-50.4,46.4-87.9,94.8-77.9c4,0.9,8.2-0.7,10.7-3.9
		c2.5-3.2,3.1-7.6,1.3-11.3c-34.1-72.9,52.4-144.5,117.7-97.7c3.2,2.3,7.4,2.7,11,1c3.6-1.7,5.9-5.2,6.2-9.1
		c2.6-41.6,37.4-74.1,79.2-74.1c47.4,0,83.8,41.8,78.7,86.1c-0.4,3.6,1,7.1,3.7,9.4c2.7,2.3,6.4,3.2,9.9,2.3
		c66.7-17.5,109.1,60.6,66.8,106.6c-3.2,3.5-3.8,8.6-1.5,12.6c2.3,4.1,7,6.3,11.5,5.4C591,239.3,629,270,629,311.3
		c0,36.1-29.3,65.5-65.3,65.5h-73.8V278C489.9,253.9,470.4,234.4,446.3,234.4L446.3,234.4z"/>
	<path class="st0" d="M345.6,553.4c42.4,0,76.8-34.5,76.8-76.8c0-30.7-18.2-57.2-44.3-69.5l16.9-8.1c5.4-2.6,7.7-9.1,5.1-14.5
		c-2.6-5.4-9.1-7.7-14.5-5.1l-44.8,21.4c-4.8,2.3-7.7,8.7-5.2,14.2c0,0.1,0,0.2,0.1,0.2l21.4,44.7c2.6,5.5,9.1,7.7,14.5,5.1
		c5.4-2.6,7.7-9.1,5.1-14.5L364.6,425c21,7.8,36.2,27.9,36.2,51.6c0,30.4-24.7,55.1-55.1,55.1c-30.4,0-55.1-24.7-55.1-55.1
		c0-6-4.9-10.9-10.9-10.9c-6,0-10.9,4.9-10.9,10.9C268.8,518.9,303.2,553.4,345.6,553.4L345.6,553.4z"/>
</g>
</svg>
