<?xml version="1.0" encoding="utf-8"?>
<!-- Generator: Adobe Illustrator 25.2.3, SVG Export Plug-In . SVG Version: 6.00 Build 0)  -->
<svg version="1.1" id="Layer_1" xmlns="http://www.w3.org/2000/svg" xmlns:xlink="http://www.w3.org/1999/xlink" x="0px" y="0px"
	 viewBox="0 0 700 700" style="enable-background:new 0 0 700 700;" xml:space="preserve">
<style type="text/css">
	.st0{fill:#E52E71;}
</style>
<g>
	<path class="st0" d="M350,602.7C211,602.7,98.3,489.9,98.3,351S211,99.3,350,99.3S601.7,212,601.7,351S488.9,602.7,350,602.7
		L350,602.7z M350,115.2c-130.2,0-235.8,105.6-235.8,235.8S219.8,586.8,350,586.8S585.8,481.2,585.8,351S480.2,115.2,350,115.2z"/>
	<path class="st0" d="M350,700.4c-13.5,0-27.8-4-38.9-12.8l-66.6-50.1c-6.4-4.8-14.3-7.9-23-9.5L139,617
		c-28.6-4-50.8-26.9-54.7-54.7l-11.1-82.5c-0.9-7.9-4.8-15.9-9.5-23l-50.1-66.6c-17.4-23-17.4-54.7,0-77.8l50.1-66.6
		c4.8-6.4,7.9-14.3,9.5-23l11.1-82.5c4-28.6,26.9-50.8,54.7-54.7l82.5-11.1c7.9-0.9,15.9-4.8,23-9.5l66.6-50.1
		c23-17.4,54.7-17.4,77.8,0l66.6,50.1c6.4,4.8,14.3,7.9,23,9.5l82.5,11.1c28.6,4,50.8,26.9,54.7,54.7l11.1,82.5
		c0.9,7.9,4.8,15.9,9.5,23l50.1,66.6c17.4,23,17.4,54.7,0,77.8l-50.1,66.6c-4.8,6.4-7.9,14.3-9.5,23l-11.1,82.5
		c-4,28.6-26.9,50.8-54.7,54.7l-82.5,11.1c-7.9,0.9-15.9,4.8-23,9.5L389,687.6C377.8,696.4,363.5,700.4,350,700.4z M350,17.5
		c-10.4,0-20.7,3.1-29.4,9.5L254,77c-8.8,6.4-19,11.1-30.2,12.8l-82.5,11.1c-21.4,3.1-38.9,19.9-41.3,41.3l-11.1,82.5
		c-1.6,11.1-5.5,21.4-12.8,30.2l-50.1,66.6c-12.8,17.4-12.8,41.3,0,58.7l50.1,66.6c6.4,8.8,11.1,19,12.8,30.2l11.1,82.5
		c3.1,21.4,19.9,38.9,41.3,41.3l82.5,11.1c11.1,1.6,21.4,5.5,30.2,12.8l66.6,50.1c17.4,12.8,41.3,12.8,58.7,0l66.6-50.1
		c8.8-6.4,19-11.1,30.2-12.8l82.5-11.1c21.4-3.1,38.9-19.9,41.3-41.3L611,477c1.6-11.1,5.5-21.4,12.8-30.2l50.1-66.6
		c12.8-17.4,12.8-41.3,0-58.7l-50.1-66.6c-6.4-8.8-11.1-19-12.8-30.2L600,142.1c-3.1-21.4-19.9-38.9-41.3-41.3l-82.5-11.1
		c-11.1-1.6-21.4-5.5-30.2-12.8L379.3,27C370.7,20.6,360.3,17.5,350,17.5L350,17.5z"/>
	<path class="st0" d="M506.4,260.5c-15.9,0-29.4,12.8-29.4,29.4c0,5.5,1.6,10.4,4,14.3l-75.4,77c-20.7-33.3-34.2-82.5-41.3-115.1
		c11.1-5.5,19-16.7,19-30.2c0-18.3-15-33.3-33.3-33.3s-33.3,15-33.3,33.3c0,13.5,7.9,24.7,19,30.2c-7.1,32.6-20.7,81.8-41.3,115.1
		l-75.4-77c2.4-4,4-8.8,4-14.3c0-15.9-12.8-29.4-29.4-29.4c-16.7,0-29.4,12.8-29.4,29.4c0,15.9,12.8,29.4,29.4,29.4l54,182.6
		c0.9,3.1,4,5.5,7.9,5.5h189.7c3.1,0,6.4-2.4,7.9-5.5l53.2-183.5c15.9,0,29.4-12.8,29.4-29.4C535,273.1,522.3,260.5,506.4,260.5
		L506.4,260.5z M438.9,491.5H261.1l-50.8-173.8l80.3,81.8c1.6,1.6,4,2.4,6.4,2.4c2.4,0,4.8-1.6,5.5-3.1
		c23.8-33.3,38.9-85.8,47.6-122.2c8.8,36.6,23.8,88.9,47.6,122.2c1.6,1.6,3.1,3.1,5.5,3.1c2.4,0,4.8-0.9,6.4-2.4l80.3-81.8
		L438.9,491.5z"/>
</g>
</svg>
