<?xml version="1.0" encoding="utf-8"?>
<!-- Generator: Adobe Illustrator 25.2.3, SVG Export Plug-In . SVG Version: 6.00 Build 0)  -->
<svg version="1.1" id="Layer_1" xmlns="http://www.w3.org/2000/svg" xmlns:xlink="http://www.w3.org/1999/xlink" x="0px" y="0px"
	 viewBox="0 0 700 700" style="enable-background:new 0 0 700 700;" xml:space="preserve">
<style type="text/css">
	.st0{fill:#E52E71;}
</style>
<g>
	<path class="st0" d="M413.1,504.7c-5-2.1-8.2-7.1-8.2-12.5c0-3.8,1.5-7.5,4.3-10.2c0.8-0.8,1.6-1.6,2.2-2.2
		c4.2-4.5,8-9.4,11.2-14.8c11.2-18.8,14.8-41.3,9.9-62.6c-5-21.3-17.9-40-36.3-51.9c-18.4-11.9-40.7-16.4-62.2-12.2
		c-16.4,2.8-31.5,10.6-43.4,22.2c-11.9,11.5-20,26.5-23.4,42.8c-6.3,28.5,2.5,58.2,23.4,78.6c2.8,2.6,4.5,6.4,4.5,10.2v0.1
		c0.1,5.5-3.2,10.5-8.2,12.6c-33.8,14-60.7,40.7-75,74.3c-10,23.1-15.1,48-14.8,73v18.1c0,7.8,3.1,15.4,8.7,20.9
		c5.6,5.6,13,8.7,20.9,8.7h246.5l0,0c7.8,0,15.4-3.1,20.9-8.7c5.6-5.6,8.7-13,8.7-20.9v-18.3c0.3-25.1-4.8-50-14.8-73
		C473.8,545.3,446.9,518.6,413.1,504.7L413.1,504.7z"/>
	<path class="st0" d="M253.2,486.6c-11.1-9.5-23.7-17.1-37.1-22.7c-5-2.1-8.2-7.1-8.2-12.5c0-3.8,1.5-7.6,4.3-10.2
		c0.8-0.8,1.6-1.6,2.2-2.2c4.2-4.5,8-9.4,11.2-14.8c11.2-18.8,14.8-41.3,9.9-62.6c-5-21.3-17.9-40-36.3-52
		c-18.4-11.9-40.7-16.4-62.2-12.2c-16.4,2.8-31.5,10.6-43.4,22.2c-11.9,11.5-20,26.5-23.4,42.8c-6.3,28.5,2.5,58.2,23.4,78.6
		c2.8,2.6,4.5,6.4,4.5,10.2v0.1c0.1,5.5-3.2,10.5-8.2,12.6c-33.8,14-60.7,40.7-75,74.3C4.7,561.2-0.3,586.2,0,611.3v18.1
		c0,7.8,3.1,15.4,8.7,20.9c5.6,5.6,13,8.7,20.9,8.7h136.2v-6.9c-0.3-29.5,5.7-58.9,17.6-86C197.5,532.9,222,505,253.2,486.6
		L253.2,486.6z"/>
	<path class="st0" d="M685.1,538c-14.4-33.6-41.3-60.2-75-74.2c-5-2.1-8.2-7.1-8.2-12.5c0-3.8,1.5-7.6,4.3-10.2
		c0.8-0.8,1.6-1.6,2.2-2.2l0,0c4.2-4.5,8-9.4,11.2-14.8c11.2-18.8,14.8-41.3,9.9-62.6c-5-21.3-17.9-40-36.3-52
		c-18.4-11.9-40.7-16.4-62.2-12.2c-16.4,2.8-31.5,10.6-43.4,22.2c-11.9,11.5-20,26.5-23.4,42.8c-6.3,28.5,2.5,58.2,23.4,78.6
		c2.8,2.6,4.5,6.4,4.5,10.2v0.1c0.1,5.5-3.2,10.5-8.2,12.6c-13.5,5.6-26,13.2-37.1,22.7c31.1,18.4,55.5,46.2,69.8,79.4
		c11.9,27,17.9,56.3,17.6,85.9v7h136.2c7.8,0,15.4-3.1,20.9-8.7c5.6-5.6,8.7-13,8.7-20.9v-18.3C700.3,586,695.3,561.1,685.1,538
		L685.1,538z"/>
	<path class="st0" d="M205.2,177.7l28.2,5.3l0,0c5.4,1,9.8,4.8,11.7,9.9c1.3,3.6,2.7,7.3,4.5,10.7c2.3,5,1.8,10.7-1.3,15.3
		l-16.2,23.7c-2.7,3.9-2.2,9.3,1.2,12.7l17.2,17.2c3.4,3.4,8.7,3.9,12.7,1.2l23.7-16.2l0,0c4.5-3.1,10.3-3.6,15.3-1.3
		c3.5,1.6,7.1,3.1,10.7,4.5c5.2,1.8,8.9,6.4,9.9,11.7l5.3,28.2l0,0c0.9,4.8,5.1,8.2,9.8,8.2h24.2c4.9,0,8.9-3.4,9.8-8.2l5.3-28.2
		l0,0c1-5.4,4.8-9.8,9.9-11.7c3.6-1.3,7.3-2.7,10.7-4.5c5-2.3,10.7-1.8,15.3,1.3l23.7,16.2c3.9,2.7,9.3,2.2,12.7-1.2l17.2-17.2
		c3.4-3.4,3.9-8.7,1.2-12.7l-16.2-23.7l0,0c-3.1-4.5-3.6-10.3-1.3-15.3c1.6-3.5,3.1-7.1,4.5-10.7c1.8-5.2,6.4-8.9,11.7-9.9l28.2-5.3
		c4.8-0.9,8.2-5.1,8.2-9.8v-24.4c0-4.8-3.4-8.9-8.2-9.8l-28.2-5.3l0,0c-5.4-1-9.8-4.8-11.7-9.9c-1.3-3.6-2.7-7.2-4.5-10.7
		c-2.3-5-1.8-10.7,1.3-15.3L468,68.9l0,0c2.7-3.9,2.2-9.3-1.2-12.7l-17.2-17.2c-3.4-3.4-8.7-3.9-12.7-1.2l-23.7,16.2
		c-4.5,3.1-10.3,3.6-15.3,1.3c-3.5-1.6-7.1-3.1-10.7-4.5c-5.2-1.8-8.9-6.4-9.9-11.7L372,10.8l0,0c-0.9-4.8-5.1-8.1-9.8-8.1h-24.3
		c-4.9,0-8.9,3.4-9.8,8.1l-5.4,28.4c-1,5.4-4.8,9.8-9.9,11.7c-3.6,1.3-7.3,2.7-10.7,4.5c-5,2.3-10.7,1.8-15.3-1.3l-23.7-16.2
		c-3.9-2.7-9.3-2.2-12.7,1.2l-17.2,17.2c-3.4,3.4-3.9,8.7-1.2,12.7l16.2,23.7l0,0c3.1,4.5,3.6,10.3,1.3,15.3
		c-1.6,3.5-3.1,7.1-4.5,10.7c-1.8,5.2-6.4,8.9-11.7,9.9l-28.2,5.3l0,0c-4.8,0.9-8.2,5.1-8.2,9.8v24.2
		C197,172.8,200.5,176.8,205.2,177.7L205.2,177.7z M350,99c15.1,0,29.4,6,40.1,16.6s16.6,25.1,16.6,40.1c0,15.1-6,29.4-16.6,40.1
		c-10.6,10.7-25,16.7-40.1,16.7s-29.4-6-40.1-16.6c-10.6-10.6-16.6-25.1-16.6-40.1c0-15.1,6-29.4,16.6-40.1
		C320.6,105,334.9,99,350,99z"/>
</g>
</svg>
