<svg id="Layer_1" data-name="Layer 1" xmlns="http://www.w3.org/2000/svg" viewBox="0 0 1000 400"><defs><style>.cls-1{fill:#e7bdac;}.cls-2,.cls-3{fill:#8c7657;}.cls-3,.cls-4{fill-rule:evenodd;}.cls-4{fill:#585856;}.cls-5{fill:#2e3192;}</style></defs><rect class="cls-1" width="1000" height="400"/><path class="cls-2" d="M187.6,90a4,4,0,0,1,.64.22,30.15,30.15,0,0,1,5,1.17,3.84,3.84,0,0,1,2.95.55l1.15.81c38,5,44.11,26.15,51.07,61.34,4,20.1,12.81,37.67,35.18,40.74,19.26,2.66,36.83-7.83,47-23.53A142.55,142.55,0,1,0,59.13,241.46C36.28,162.92,101.6,70.92,187.6,90Z"/><path class="cls-2" d="M279.05,198.83c-22.63-4.59-32.06-22.72-36.64-43.47-5.78-26.24-9.82-43.82-30.43-51.43,10,8.89,15.49,18.9,12,36.2-2.66,13.17-12.78,41.45-11,53.22,1.65,11,8.81,19.54,18.37,25.63l-4.25-36.65v-.28l.09-1.71,21.24,46.25c10.44,3.1,21.5,4,30.74,2.52,29.51-4.72,44.63-26.08,51.7-51.36,0-.71,0-1.41-.06-2.11C319.86,192.58,299.81,203.05,279.05,198.83Z"/><path class="cls-2" d="M178.29,243.54c-43.61-34.36-62.24,10.77-57.7-23.55l2.23-16.79-3.67-6.88,5.5-5a25,25,0,0,1-6.42-6.41c-2.29-3.68,3.67-11.47,3.67-11.47s-15.59-11.92-11-12.37,28.42-8.72,31.17-21.55c5.09-23.78,14.69-37.72,25.27-44.47C102,92.07,52.83,158.3,58.39,223.3c.9,10.44,2.82,17.93,5.15,26.82a142.65,142.65,0,0,0,108.33,72.7C217.89,328.12,203.18,263.15,178.29,243.54Z"/><polygon class="cls-2" points="249.33 234.59 231.25 196.72 236.03 224.56 249.33 234.59"/><path class="cls-2" d="M235.51,246.86,195,193.92l1.33.71.1-.1.3.37,13.54,10.21a40.81,40.81,0,0,1-2.2-5.22c-6.23-18.39,7.6-46.53,9.68-65.85a24.57,24.57,0,0,0-3.08-15.29,36.26,36.26,0,0,1-2.88,17.06c-21.09,50.43-57.76,78.85-4.59,104.52a193.07,193.07,0,0,0,29.28,11.41Z"/><path class="cls-2" d="M301.16,256.6a22.47,22.47,0,0,0-22.4,4.77L273.08,257l.17,0-19-12.56.08.2-3.2-2.81-40.22-32.37,27.31,37.14,1.45,19.29,1.93,14.76a22.57,22.57,0,0,0-12.3,33.89,22.59,22.59,0,1,0,23.62-34.42,24.54,24.54,0,0,0-2.71-.38l3.44-18.59,20,7.26a23,23,0,0,0-1,2.52,22.6,22.6,0,1,0,28.59-14.26Zm-49.82,30.93a15,15,0,1,1-11.25,2.09A14.94,14.94,0,0,1,251.34,287.53Zm-3.57-33.79a4.37,4.37,0,1,1,4.36-4.36A4.37,4.37,0,0,1,247.77,253.74Zm60.41,29a14.94,14.94,0,1,1-.8-11.42A14.89,14.89,0,0,1,308.18,282.77Z"/><path class="cls-2" d="M290.16,231.5c-11.58,4-25.5,4.51-38.68,1.73l2.46,5.37L274,256.89c31.55-1.73,54-21.82,56.66-66.68C323.51,208.83,310.87,224.31,290.16,231.5Z"/><path class="cls-3" d="M313,273.66a3.17,3.17,0,0,0-2.83,3.42,3.11,3.11,0,0,0,3,3.27l11.75.07a3.17,3.17,0,0,0,2.82-3.42,3.11,3.11,0,0,0-2.95-3.27Z"/><path class="cls-4" d="M167.34,95C102,92.07,52.83,158.3,58.39,223.3c.9,10.44,2.82,17.93,5.15,26.82a142.65,142.65,0,0,0,108.33,72.7c46,5.3,31.31-59.67,6.42-79.28-43.61-34.36-62.24,10.77-57.7-23.55l2.23-16.79-3.67-6.88,5.5-5a25,25,0,0,1-6.42-6.41c-2.29-3.68,3.67-11.47,3.67-11.47s-15.59-11.92-11-12.37,28.42-8.72,31.17-21.55C147.16,115.7,156.76,101.76,167.34,95Z"/><path class="cls-5" d="M419.33,148.66c7.46,0,13.44,1.37,17.75,4.52,4.09,3,6.93,8,6.93,14.9,0,15.33-13.13,21.53-23.1,21.53a19.09,19.09,0,0,1-2.83-.21l-7.25-1.89v16.38c0,8.82.74,9,10.4,10.08v2.94h-29V214c9-.95,9.45-1.58,9.45-10.29V162c0-9.35-1.16-9.56-9.45-10.4v-2.94Zm-8.5,35.17a19.07,19.07,0,0,0,7.67,1.37c7,0,15.74-3.57,15.74-16.8,0-11.55-7.55-16.17-16.37-16.17-3.05,0-5.25.53-5.88,1.26-.84.74-1.16,2-1.16,4.83Z"/><path class="cls-5" d="M475.19,216.91H451.05V214c6.61-.63,7.24-1.16,7.24-8V184.15c0-6.93-.42-7.25-6.51-8v-2.63a58.16,58.16,0,0,0,14.8-4.3v11.55c3.68-5.46,8.09-11.24,13.34-11.24,3.88,0,6.09,2.42,6.09,5a7,7,0,0,1-3.57,5.78,2.08,2.08,0,0,1-2.73-.21c-1.58-1.58-2.84-2.63-4.73-2.63-2.2,0-6.09,3.26-8.4,8.61v19.74c0,6.93.53,7.46,8.61,8.09Z"/><path class="cls-5" d="M527.7,208c-6.72,8.4-14.07,10.19-17.43,10.19-12.81,0-20.58-10.5-20.58-22.58a27,27,0,0,1,6.82-18.37c4.41-4.94,10.19-7.67,15.65-7.67,9.13,0,16.06,7.88,16.06,16.28-.1,2.1-.42,3-2.1,3.46-2.1.42-15.54,1.37-28,1.79-.32,14.07,8.29,19.84,15.75,19.84,4.3,0,8.29-1.78,12.18-5.35Zm-18.06-34.44c-4.83,0-9.56,4.52-11,13,5.88,0,11.76,0,18-.31,1.89,0,2.51-.53,2.51-2.1C519.19,178.58,515.52,173.54,509.64,173.54Z"/><path class="cls-5" d="M555.73,216.8a10.58,10.58,0,0,1-4.52,1.37c-6.71,0-10.29-4.1-10.29-12.5V175.12h-7.24l-.42-1.26,2.84-3.05h4.82V162c2-2.1,5-4.83,7-6.93l1.58.21c-.21,4.41-.32,10.49-.32,15.53h12a3.29,3.29,0,0,1-.63,4.31H549.22V202c0,8.5,3.36,10.08,6.09,10.08a15.06,15.06,0,0,0,6.4-1.68l.95,2.73Z"/><path class="cls-5" d="M586.49,216.8a10.51,10.51,0,0,1-4.51,1.37c-6.72,0-10.29-4.1-10.29-12.5V175.12h-7.24l-.42-1.26,2.83-3.05h4.83V162c2-2.1,5-4.83,7-6.93l1.58.21c-.21,4.41-.32,10.49-.32,15.53h12a3.28,3.28,0,0,1-.63,4.31H580V202c0,8.5,3.36,10.08,6.09,10.08a15.11,15.11,0,0,0,6.41-1.68l.94,2.73Z"/><path class="cls-5" d="M646.13,173.65c-5.46.84-6.61,1.68-9.24,7.66s-5.46,13-12.7,31.29c-6.83,16.8-8.72,23.31-10.4,28.77-.63,2.21-1.78,2.73-3.15,2.73-3.36,0-6.4-2.41-6.4-5,0-1.36.73-2.31,2.31-3.67,3.36-2.63,5.77-5.15,7-7.77,2.21-4.41,3.78-8.09,4.31-9.45a6.16,6.16,0,0,0-.21-4.31c-4.1-12-9.77-24.88-12.92-32.44-2.31-5.78-3.25-7-9-7.77v-2.84h21.21v2.84c-4.83.73-5.35,1.78-4,5.67l10.19,25.83c2.94-7.25,7.14-18.9,9.34-25.52,1.26-4,.53-5.14-5.56-6v-2.84h19.21Z"/><path class="cls-5" d="M700.1,148.66c7.45,0,13.44,1.37,17.74,4.52,4.1,3,6.93,8,6.93,14.9,0,15.33-13.12,21.53-23.1,21.53a19.09,19.09,0,0,1-2.83-.21l-7.25-1.89v16.38c0,8.82.74,9,10.4,10.08v2.94H673V214c9-.95,9.45-1.58,9.45-10.29V162c0-9.35-1.16-9.56-9.45-10.4v-2.94Zm-8.51,35.17a19.07,19.07,0,0,0,7.67,1.37c7,0,15.75-3.57,15.75-16.8,0-11.55-7.56-16.17-16.38-16.17-3,0-5.25.53-5.88,1.26-.84.74-1.16,2-1.16,4.83Z"/><path class="cls-5" d="M763.73,218.17a7.67,7.67,0,0,1-4.94-2,9.9,9.9,0,0,1-2.52-4.72c-4.2,2.83-9.34,6.72-12.6,6.72a12.89,12.89,0,0,1-12.81-12.92c0-5.14,2.84-8.5,8.61-10.5,6.41-2.2,14.28-4.93,16.59-6.82v-2.1c0-7.46-3.78-11.76-9.24-11.76a6.09,6.09,0,0,0-4.93,2.41c-1.16,1.47-1.89,3.78-2.84,6.83a2.91,2.91,0,0,1-3,2.41,5,5,0,0,1-4.62-4.62c0-1.47,1.36-2.73,3.46-4.2,3-2.2,9.14-6.09,15.12-7.35a14.51,14.51,0,0,1,8.82,2.84c3.68,3.15,5.36,6.72,5.36,12.18v20.26c0,4.83,1.78,6.3,3.67,6.3A8.32,8.32,0,0,0,771.6,210l1,2.94Zm-7.67-26.57c-2.31,1.16-7.35,3.36-9.76,4.41-4,1.79-6.41,3.78-6.41,7.67a7.64,7.64,0,0,0,7.56,8.08,14,14,0,0,0,8.61-3.78Z"/><path class="cls-5" d="M801.21,216.91H777.06V214c6.62-.63,7.25-1.16,7.25-8V184.15c0-6.93-.42-7.25-6.51-8v-2.63a58.27,58.27,0,0,0,14.8-4.3v11.55c3.68-5.46,8.09-11.24,13.34-11.24,3.88,0,6.09,2.42,6.09,5a7,7,0,0,1-3.57,5.78,2.08,2.08,0,0,1-2.73-.21c-1.58-1.58-2.84-2.63-4.73-2.63-2.2,0-6.09,3.26-8.4,8.61v19.74c0,6.93.53,7.46,8.61,8.09Z"/><path class="cls-5" d="M813.29,216.91V214c6.72-.63,7.56-1.16,7.56-8.09V155.59c0-6.4-.53-7-7.25-7.87V145a74.39,74.39,0,0,0,15.54-3.57v64.46c0,6.93.63,7.46,7.46,8.09v2.94Z"/><path class="cls-5" d="M865.58,169.55c13.12,0,22.89,10,22.89,23.52,0,17-12.6,25.1-22.89,25.1-14.49,0-23.31-11.66-23.31-23.42C842.27,177.64,855.6,169.55,865.58,169.55Zm-1.26,3.57c-6.41,0-12.18,6.2-12.18,18.38,0,13.33,5.88,23,14.49,23,6.51,0,12-4.72,12-19.11C878.6,183.1,873.56,173.12,864.32,173.12Z"/><path class="cls-5" d="M919.44,216.91H895.29V214c6.62-.63,7.25-1.16,7.25-8V184.15c0-6.93-.42-7.25-6.51-8v-2.63a58.27,58.27,0,0,0,14.8-4.3v11.55c3.68-5.46,8.09-11.24,13.34-11.24,3.88,0,6.09,2.42,6.09,5a7,7,0,0,1-3.57,5.78,2.08,2.08,0,0,1-2.73-.21c-1.58-1.58-2.84-2.63-4.73-2.63-2.2,0-6.09,3.26-8.4,8.61v19.74c0,6.93.53,7.46,8.61,8.09Z"/></svg>