<?xml version="1.0" encoding="utf-8"?>
<!-- Generator: Adobe Illustrator 25.2.3, SVG Export Plug-In . SVG Version: 6.00 Build 0)  -->
<svg version="1.1" id="fd59ce54-f850-4dfc-bc34-dd7d379d600e"
	 xmlns="http://www.w3.org/2000/svg" xmlns:xlink="http://www.w3.org/1999/xlink" x="0px" y="0px" viewBox="0 0 1074.4 584.2"
	 style="enable-background:new 0 0 1074.4 584.2;" xml:space="preserve">
<style type="text/css">
	.st0{fill:#F2F2F2;}
	.st1{fill:#2F2E41;}
	.st2{fill:#10001F;}
	.st3{fill:#0B002A;}
	.st4{fill:none;stroke:#3F3D56;stroke-miterlimit:10;}
	.st5{fill:#3F3D56;}
	.st6{opacity:0.1;enable-background:new    ;}
	.st7{fill:#FBBEBE;}
	.st8{fill:#FFFFFF;}
	.st9{opacity:0.3;fill:#6C63FF;enable-background:new    ;}
</style>
<ellipse class="st0" cx="540.6" cy="549.3" rx="527.5" ry="34.9"/>
<path class="st1" d="M520.4,167c-85.9,0-147.7,55.1-147.7,183.8c0,145.8,61.7,184.4,147.7,184.4s151.3-42.3,151.3-184.4
	C671.8,198.9,606.4,167,520.4,167z M521,486.8c-59.5,0-90.6-34.9-90.6-135.9c0-89.1,32.4-136.1,91.9-136.1s91.9,30.9,91.9,136.1
	C614.2,449.3,580.5,486.8,521,486.8z"/>
<path class="st2" d="M321.3,433.5h-35.5V328.9c0-11.6-9.4-21-21-21h-8.3c-11.6,0-21,9.4-21,21l0,0v104.6H135.3c-6.6,0-12-5.4-12-12
	c0-1.9,0.5-3.9,1.4-5.6l106.1-200.8c5.4-10.2,1.5-22.9-8.7-28.3c-0.3-0.1-0.6-0.3-0.8-0.4l-6.3-3c-10.1-4.8-22.2-0.8-27.4,9.1
	l-129.4,242c-2.2,4.1-3.4,8.7-3.4,13.4l0,0c0,15.7,12.7,28.4,28.4,28.4c0,0,0,0,0,0h152.3v66.2c0,13.9,11.2,25.1,25.1,25.1l0,0h0
	c13.9,0,25.1-11.2,25.1-25.1l0,0v-66.2h35.5c11.8,0,21.4-9.6,21.4-21.4l0,0C342.8,443.1,333.2,433.5,321.3,433.5L321.3,433.5z"/>
<path class="st3" d="M979.3,433.5h-35.5V328.9c0-11.6-9.4-21-21-21h-8.3c-11.6,0-21,9.4-21,21l0,0v104.6H793.3c-6.6,0-12-5.4-12-12
	c0-1.9,0.5-3.9,1.4-5.6l106.1-200.8c5.4-10.2,1.5-22.9-8.7-28.3c-0.3-0.1-0.6-0.3-0.8-0.4l-6.3-3c-10.1-4.8-22.2-0.8-27.4,9.1
	l-129.4,242c-2.2,4.1-3.4,8.7-3.4,13.4l0,0c0,15.7,12.7,28.4,28.4,28.4l0,0h152.3v66.2c0,13.9,11.2,25.1,25.1,25.1c0,0,0,0,0,0l0,0
	c13.9,0,25.1-11.2,25.1-25.1c0,0,0,0,0,0v-66.2h35.5c11.8,0,21.4-9.6,21.4-21.4l0,0l0,0C1000.8,443.1,991.2,433.5,979.3,433.5
	L979.3,433.5z"/>
<path class="st4" d="M331.1,421.3h-35.5V316.6c0-11.6-9.4-21-21-21l0,0h-8.3c-11.6,0-21,9.4-21,21v0v104.6H145.1
	c-6.6,0-12-5.4-12-12c0-1.9,0.5-3.9,1.4-5.6l106.1-200.8c5.4-10.2,1.5-22.9-8.7-28.3c-0.3-0.1-0.6-0.3-0.8-0.4l-6.3-3
	c-10.1-4.8-22.2-0.8-27.4,9.1L68,422.3c-2.2,4.1-3.4,8.7-3.4,13.4l0,0c0,15.7,12.7,28.4,28.4,28.4h152.3v66.2
	c0,13.9,11.2,25.1,25.1,25.1l0,0h0c13.9,0,25.1-11.2,25.1-25.1l0,0v-66.2h35.5c11.8,0,21.4-9.6,21.4-21.4l0,0
	C352.6,430.9,343,421.3,331.1,421.3z"/>
<path class="st4" d="M997.7,421.3h-35.5V316.6c0-11.6-9.4-21-21-21l0,0h-8.3c-11.6,0-21,9.4-21,21v0v104.6H811.7
	c-6.6,0-12-5.4-12-12c0-1.9,0.5-3.9,1.4-5.6l106.1-200.8c5.4-10.2,1.5-22.9-8.7-28.3c-0.3-0.1-0.6-0.3-0.8-0.4l-6.3-3
	c-10.1-4.8-22.2-0.8-27.4,9.1l-129.4,242c-2.2,4.1-3.4,8.7-3.4,13.4l0,0c0,15.7,12.7,28.4,28.4,28.4l0,0h152.3v66.2
	c0,13.9,11.2,25.1,25.1,25.1c0,0,0,0,0,0l0,0c13.9,0,25.1-11.2,25.1-25.1c0,0,0,0,0,0v-66.2h35.5c11.8,0,21.4-9.6,21.4-21.4l0,0l0,0
	C1019.1,430.9,1009.5,421.3,997.7,421.3C997.7,421.3,997.7,421.3,997.7,421.3z"/>
<path class="st4" d="M540,156c-85.9,0-147.7,55.1-147.7,183.8c0,145.8,61.7,184.4,147.7,184.4s151.3-42.3,151.3-184.4
	C691.4,187.8,626,156,540,156z M540.6,475.8c-59.5,0-90.6-34.9-90.6-135.9c0-89.1,32.4-136.1,91.9-136.1s91.9,30.9,91.9,136.1
	C633.8,438.3,600.1,475.8,540.6,475.8L540.6,475.8z"/>
<path class="st5" d="M576.2,184.2c-0.8,3.2-4.1,5.8-7.8,7.5c-7.8,3.8-17.4,4.9-26.8,5.3c-2.4,0.1-4.8,0.1-7.1-0.1
	c-4.6-0.4-8.9-2.4-12.3-5.6c-0.8-0.5-1-1.5-0.5-2.3c0.1-0.2,0.3-0.4,0.5-0.5c5-5.5,13.3-8.8,21.6-11.2c6.3-1.8,17.4-6.6,24.3-5.9
	C574.9,171.9,577.2,180.2,576.2,184.2z"/>
<path class="st6" d="M576.2,184.2c-0.8,3.2-4.1,5.8-7.8,7.5c-7.8,3.8-17.4,4.9-26.8,5.3c-2.4,0.1-4.8,0.1-7.1-0.1
	c-4.6-0.4-8.9-2.4-12.3-5.6c-0.8-0.5-1-1.5-0.5-2.3c0.1-0.2,0.3-0.4,0.5-0.5c5-5.5,13.3-8.8,21.6-11.2c6.3-1.8,17.4-6.6,24.3-5.9
	C574.9,171.9,577.2,180.2,576.2,184.2z"/>
<path class="st7" d="M611.1,133.8c0,0,3.3,9.4,6.2,6.9l-2.4-12.2L611.1,133.8z"/>
<ellipse class="st1" cx="480.9" cy="319.1" rx="17" ry="22"/>
<ellipse class="st1" cx="573.4" cy="319.6" rx="17" ry="22"/>
<path class="st1" d="M560.4,384.6c0,9.9-13.9,18-31,18s-31-8.1-31-18c0-8.6,10.4-15.8,24.3-17.6c2.2-0.3,4.4-0.4,6.7-0.4
	c3.7,0,7.5,0.4,11.1,1.2C552.2,370.4,560.4,377,560.4,384.6z"/>
<ellipse class="st4" cx="484.9" cy="314.1" rx="17" ry="22"/>
<ellipse class="st4" cx="577.4" cy="314.6" rx="17" ry="22"/>
<ellipse class="st4" cx="533.4" cy="379.6" rx="31" ry="18"/>
<path class="st8" d="M540.9,369.3c0,1.3-0.5,2.5-1.3,3.4c-0.8,0.9-2,1.4-3.2,1.4h-10c-2.6-0.1-4.6-2.2-4.5-4.8c0-1,0.3-1.9,0.8-2.7
	c2.2-0.3,4.4-0.5,6.7-0.5c3.7,0,7.5,0.4,11.1,1.3C540.8,368,540.9,368.7,540.9,369.3z"/>
<circle class="st8" cx="484.9" cy="308.1" r="5"/>
<circle class="st8" cx="577.9" cy="308.1" r="5"/>
<circle class="st9" cx="582.9" cy="355.1" r="5"/>
<circle class="st9" cx="460.9" cy="355.1" r="5"/>
</svg>
